<?xml version="1.0" encoding="utf-8"?>
<!-- Generator: Adobe Illustrator 21.1.0, SVG Export Plug-In . SVG Version: 6.00 Build 0)  -->
<svg version="1.1" id="Layer_1" xmlns="http://www.w3.org/2000/svg" xmlns:xlink="http://www.w3.org/1999/xlink" x="0px" y="0px"
	 viewBox="0 0 369.7 104.8" style="enable-background:new 0 0 369.7 104.8;" xml:space="preserve">
<style type="text/css">
	.st0{fill:#00769B;}
	.st1{fill:#EB7424;}
</style>
<g>
	<path class="st0" d="M187.1,54.6c0,1.9-3,3.5-6.8,3.5c-3.7,0-6.8-1.6-6.8-3.5s3-3.5,6.8-3.5S187.1,52.7,187.1,54.6L187.1,54.6z"/>
	<path class="st1" d="M44.5,47.8c0-9.6-8.2-13.3-16.2-16.9c-9.4-4-12.8-5.6-12.8-10.9c0-6.2,5.6-8.7,11.1-8.7
		c4.3,0,8.5,1.5,10.9,2.9c0.4,0.2,1.9,1.3,2.3,1.3c0.1,0,0.2,0,0.5-0.2l1.5-0.6c0.4-0.3,0.4-0.5,0.3-1l-0.7-5
		c-0.1-0.9-0.6-1.2-1-1.3c-0.8-0.4-6-1.7-11.9-1.7C15.4,5.7,7,12.1,7,21.9c0,9.7,7.8,13.1,17,16.9c7,3,11.8,5.1,11.8,10.9
		c0,6.3-6.1,9.2-12,9.2c-5.1,0-10.5-1.6-14.8-4c-0.3-0.2-1.5-1.1-1.8-1.1C7,53.8,6.8,54,6.7,54l-1.4,0.7C4.9,55,5,55.2,5,55.9
		l0.8,5.5c0.1,0.8,0.5,1,1.6,1.4c1.7,0.5,9.3,2.1,15,2.1C36.8,65,44.5,56.7,44.5,47.8L44.5,47.8z M78.7,65.3
		c19.5,0,32.3-13.4,32.3-30.6c0-16.3-11.9-29.2-29.5-29.2c-7.4,0-14.1,1.4-20.6,6.1c-8.7,6.2-12.5,15.3-12.5,24.2
		C48.3,50.1,58.8,65.3,78.7,65.3L78.7,65.3z M79.9,11.4c12.8,0,21,12.3,21,24.9c0,13.2-8.6,23.1-20.5,23.1
		c-12.7,0-22.1-11.1-22.1-25C58.4,25.9,62.7,11.4,79.9,11.4L79.9,11.4z M178.5,6.8l-23.8,51h-27.1v-51h-9.3v57.1h38.6
		c2.2,0,4.1-1.3,4.9-3.3l18-42.9l16,42.9c0.8,1.9,2.7,3.3,4.9,3.3h6.5L184.6,6.8H178.5L178.5,6.8z M357.9,6.8
		c-1.7,0.1-3.2,1-4.1,2.4l-14.4,23.7L325.6,9.4c-0.9-1.5-2.5-2.5-4.4-2.6H261v53.4c-1.8,0-3.5-0.2-4.5-0.5c-2.7-0.8-4.2-2.1-5.1-3
		c-3.1-3.1-8.1-9.5-13.2-19.1c3-1.1,12.7-4.6,12.7-15.7c0-3.2-1-7.9-4.7-11.2C242,6.9,235.9,6.4,228,6.4c-1.4,0-2.8,0.1-3.9,0.1
		c-2,0-11.8,0.3-14.1,0.3v57.1h9.3V12.2c3.6-0.2,6.4-0.2,7.2-0.2c5.6,0,14.4,0,14.4,10.7s-8.6,11.6-14.8,11.7c0.8,1.6,1.7,3.2,2.7,5
		l1,1.7c1.6,2.8,3.6,6.1,6.2,10.4c2.5,3.8,5.3,7.4,7.8,9.4c1.8,1.5,4.5,2.6,7.1,3.2c0.8,0.2,1.5,0.3,2.4,0.4
		c0.6,0.1,1.1,0.1,1.6,0.1h0.4c2.2,0,4.5-0.4,6.1-1l0,0c4.5-1.2,7.8-3.4,8.6-4.5V12.8h22.8v51.1h9.3V12.8h14.6L333,39.1v24.8h3.9
		c2.9,0,5.3-2.4,5.3-5.3V38.8l22.4-32L357.9,6.8L357.9,6.8z M49.4,95.8c-3.4,0-5.3-2.4-5.3-6.7c0-4.4,1.9-6.8,5.5-6.8
		c2.5,0,4,1.2,4.4,3.4h4c-0.3-4.5-3.3-7.1-8.4-7.1c-6.2,0-9.6,3.7-9.6,10.4c0,6.6,3.4,10.4,9.3,10.4c5.1,0,8.5-2.9,8.8-7.4h-4
		C53.5,94.5,51.9,95.8,49.4,95.8L49.4,95.8z M85,96.1l-0.1-2.3c-0.1-2.4-0.6-3.7-2.4-4.3c1.9-0.6,3-2.3,3-4.7c0-3.8-2.1-5.6-6.4-5.6
		h-9.6V99h4.1v-7.7h4.3c2.3,0,2.9,0.8,3,3.1l0.1,2.1c0,1.1,0.2,1.9,0.5,2.5H86v-0.6C85.1,97.9,85.1,97.2,85,96.1L85,96.1z
		 M78.3,87.8h-4.8v-5.2h5c1.9,0,2.8,0.9,2.8,2.6C81.4,87,80.4,87.8,78.3,87.8L78.3,87.8z M101.4,90.2h9.5v-3.4h-9.5v-4.2h10.3v-3.4
		H97.4V99h14.9v-3.7h-10.8L101.4,90.2L101.4,90.2z M131.4,79.1h-7.8v19.8h6.7c2.8,0,5-0.2,6.9-1.8c2.1-1.7,3.2-4.4,3.2-8.1
		C140.4,82.3,137.4,79.1,131.4,79.1L131.4,79.1z M130.9,95.3h-3.3V82.6h3.8c3.4,0,4.9,2,4.9,6.4C136.3,93.5,134.7,95.3,130.9,95.3
		L130.9,95.3z M152,98.9h4.1V79.1H152V98.9L152,98.9z M166.8,82.6h5.9v16.3h4.1V82.6h5.8v-3.5h-15.8V82.6L166.8,82.6z M220.9,91.5
		c0,3-1.1,4.4-3.9,4.4c-2.7,0-3.8-1.4-3.8-4.4V79.1h-4.1V92c0,4.9,2.8,7.6,8,7.6c5.1,0,7.9-2.6,7.9-7.6V79.1h-4.1L220.9,91.5
		L220.9,91.5z M249.6,92.7l-8-13.6h-4.3v19.8h4V85.3l8.1,13.6h4.2V79.1h-4V92.7L249.6,92.7z M266,98.9h4.1V79.1H266V98.9L266,98.9z
		 M291.4,78.6c-5.9,0-9.7,4-9.7,10.4s3.7,10.4,9.7,10.4c5.9,0,9.7-4,9.7-10.4S297.4,78.6,291.4,78.6L291.4,78.6z M291.4,95.9
		c-3.4,0-5.5-2.5-5.5-6.9s2.1-6.9,5.5-6.9c3.5,0,5.6,2.5,5.6,6.9S294.9,95.9,291.4,95.9L291.4,95.9z M324.9,92.7l-8-13.6h-4.3v19.8
		h4V85.3l8.1,13.6h4.2V79.1h-4L324.9,92.7L324.9,92.7z"/>
</g>
</svg>
